# xmcd CD database file
# Copyright (C) 1993-1998 Ti Kan
#
# Track frame offsets:
# 150
# 12137
# 22902
# 34637
# 46037
# 59612
# 70937
# 84662
# 96212
# 109787
# 122162
# 135662
#
# Disc length: 1979 seconds
#
# Revision: 0
# Processed by: cddbd v1.4b41PL1 Copyright (c) Steve Scherf et al.
# Submitted via: inCDius 1.1d1
#
DISCID=9607b90c
DTITLE=Willie Nelson - Sweet Memories - 36 All-Time Favorites Vol 1
DYEAR=1900
DGENRE=
TTITLE0=Funny How Time Slips Away
TTITLE1=Night Life
TTITLE2=Once More With Feeling
TTITLE3=Onde Day At A Time
TTITLE4=Good Hearted Woman
TTITLE5=She's Not For You
TTITLE6=If You Can Touch Her At All
TTITLE7=How Long Have You Been There
TTITLE8=Don't You Ever Get Tired Of Hurting Me
TTITLE9=Heroes
TTITLE10=A Mansion On The Hill
TTITLE11=Just To Satisfy You
EXTD=
EXTT0=
EXTT1=
EXTT2=
EXTT3=
EXTT4=
EXTT5=
EXTT6=
EXTT7=
EXTT8=
EXTT9=
EXTT10=
EXTT11=
PLAYORDER=
